<?xml version="1.0" encoding="UTF-8" standalone="no"?>
<!DOCTYPE svg PUBLIC "-//W3C//DTD SVG 1.1//EN"
 "http://www.w3.org/Graphics/SVG/1.1/DTD/svg11.dtd">
<!-- Generated by graphviz version 2.43.0 (0)
 -->
<!-- Title: %3 Pages: 1 -->
<svg width="2152pt" height="476pt"
 viewBox="0.00 0.00 2152.00 476.00" xmlns="http://www.w3.org/2000/svg" xmlns:xlink="http://www.w3.org/1999/xlink">
<g id="graph0" class="graph" transform="scale(1 1) rotate(0) translate(4 472)">
<title>%3</title>
<polygon fill="white" stroke="transparent" points="-4,4 -4,-472 2148,-472 2148,4 -4,4"/>
<!-- [root] aws_emr_cluster.cluster (expand) -->
<g id="node1" class="node">
<title>[root] aws_emr_cluster.cluster (expand)</title>
<polygon fill="none" stroke="black" points="1194.5,-252 1006.5,-252 1006.5,-216 1194.5,-216 1194.5,-252"/>
<text text-anchor="middle" x="1100.5" y="-230.3" font-family="Times,serif" font-size="14.00">aws_emr_cluster.cluster</text>
</g>
<!-- [root] aws_iam_instance_profile.emr_profile (expand) -->
<g id="node2" class="node">
<title>[root] aws_iam_instance_profile.emr_profile (expand)</title>
<polygon fill="none" stroke="black" points="1070.5,-180 788.5,-180 788.5,-144 1070.5,-144 1070.5,-180"/>
<text text-anchor="middle" x="929.5" y="-158.3" font-family="Times,serif" font-size="14.00">aws_iam_instance_profile.emr_profile</text>
</g>
<!-- [root] aws_emr_cluster.cluster (expand)&#45;&gt;[root] aws_iam_instance_profile.emr_profile (expand) -->
<g id="edge1" class="edge">
<title>[root] aws_emr_cluster.cluster (expand)&#45;&gt;[root] aws_iam_instance_profile.emr_profile (expand)</title>
<path fill="none" stroke="black" d="M1058.67,-215.88C1035.08,-206.22 1005.44,-194.09 980.5,-183.88"/>
<polygon fill="black" stroke="black" points="981.78,-180.62 971.2,-180.07 979.12,-187.1 981.78,-180.62"/>
</g>
<!-- [root] aws_iam_role.emr_autoscaling_role (expand) -->
<g id="node3" class="node">
<title>[root] aws_iam_role.emr_autoscaling_role (expand)</title>
<polygon fill="none" stroke="black" points="514.5,-180 246.5,-180 246.5,-144 514.5,-144 514.5,-180"/>
<text text-anchor="middle" x="380.5" y="-158.3" font-family="Times,serif" font-size="14.00">aws_iam_role.emr_autoscaling_role</text>
</g>
<!-- [root] aws_emr_cluster.cluster (expand)&#45;&gt;[root] aws_iam_role.emr_autoscaling_role (expand) -->
<g id="edge2" class="edge">
<title>[root] aws_emr_cluster.cluster (expand)&#45;&gt;[root] aws_iam_role.emr_autoscaling_role (expand)</title>
<path fill="none" stroke="black" d="M1006.48,-225.14C894.33,-215.59 700.91,-198.56 524.8,-180.12"/>
<polygon fill="black" stroke="black" points="525.15,-176.64 514.84,-179.08 524.42,-183.6 525.15,-176.64"/>
</g>
<!-- [root] aws_iam_role.emr_service_role (expand) -->
<g id="node4" class="node">
<title>[root] aws_iam_role.emr_service_role (expand)</title>
<polygon fill="none" stroke="black" points="770,-180 533,-180 533,-144 770,-144 770,-180"/>
<text text-anchor="middle" x="651.5" y="-158.3" font-family="Times,serif" font-size="14.00">aws_iam_role.emr_service_role</text>
</g>
<!-- [root] aws_emr_cluster.cluster (expand)&#45;&gt;[root] aws_iam_role.emr_service_role (expand) -->
<g id="edge3" class="edge">
<title>[root] aws_emr_cluster.cluster (expand)&#45;&gt;[root] aws_iam_role.emr_service_role (expand)</title>
<path fill="none" stroke="black" d="M1006.37,-218.33C937.98,-207.66 844.87,-193.15 771.18,-181.66"/>
<polygon fill="black" stroke="black" points="771.34,-178.14 760.92,-180.06 770.26,-185.06 771.34,-178.14"/>
</g>
<!-- [root] aws_security_group.emr_master (expand) -->
<g id="node12" class="node">
<title>[root] aws_security_group.emr_master (expand)</title>
<polygon fill="none" stroke="black" points="1468.5,-180 1220.5,-180 1220.5,-144 1468.5,-144 1468.5,-180"/>
<text text-anchor="middle" x="1344.5" y="-158.3" font-family="Times,serif" font-size="14.00">aws_security_group.emr_master</text>
</g>
<!-- [root] aws_emr_cluster.cluster (expand)&#45;&gt;[root] aws_security_group.emr_master (expand) -->
<g id="edge4" class="edge">
<title>[root] aws_emr_cluster.cluster (expand)&#45;&gt;[root] aws_security_group.emr_master (expand)</title>
<path fill="none" stroke="black" d="M1159.88,-215.97C1194.56,-206.01 1238.51,-193.41 1274.83,-182.99"/>
<polygon fill="black" stroke="black" points="1276.21,-186.23 1284.86,-180.11 1274.28,-179.5 1276.21,-186.23"/>
</g>
<!-- [root] aws_security_group.emr_slave (expand) -->
<g id="node13" class="node">
<title>[root] aws_security_group.emr_slave (expand)</title>
<polygon fill="none" stroke="black" points="1720.5,-180 1486.5,-180 1486.5,-144 1720.5,-144 1720.5,-180"/>
<text text-anchor="middle" x="1603.5" y="-158.3" font-family="Times,serif" font-size="14.00">aws_security_group.emr_slave</text>
</g>
<!-- [root] aws_emr_cluster.cluster (expand)&#45;&gt;[root] aws_security_group.emr_slave (expand) -->
<g id="edge5" class="edge">
<title>[root] aws_emr_cluster.cluster (expand)&#45;&gt;[root] aws_security_group.emr_slave (expand)</title>
<path fill="none" stroke="black" d="M1194.69,-217.76C1198.68,-217.16 1202.63,-216.57 1206.5,-216 1323.55,-198.84 1355.41,-196.25 1476.43,-180.14"/>
<polygon fill="black" stroke="black" points="1477.02,-183.59 1486.46,-178.8 1476.09,-176.65 1477.02,-183.59"/>
</g>
<!-- [root] aws_subnet.emr_subnet (expand) -->
<g id="node14" class="node">
<title>[root] aws_subnet.emr_subnet (expand)</title>
<polygon fill="none" stroke="black" points="1926.5,-180 1738.5,-180 1738.5,-144 1926.5,-144 1926.5,-180"/>
<text text-anchor="middle" x="1832.5" y="-158.3" font-family="Times,serif" font-size="14.00">aws_subnet.emr_subnet</text>
</g>
<!-- [root] aws_emr_cluster.cluster (expand)&#45;&gt;[root] aws_subnet.emr_subnet (expand) -->
<g id="edge6" class="edge">
<title>[root] aws_emr_cluster.cluster (expand)&#45;&gt;[root] aws_subnet.emr_subnet (expand)</title>
<path fill="none" stroke="black" d="M1194.65,-217.45C1198.65,-216.93 1202.61,-216.44 1206.5,-216 1434.71,-189.9 1496.34,-206.52 1728.16,-180.09"/>
<polygon fill="black" stroke="black" points="1728.72,-183.55 1738.25,-178.92 1727.92,-176.59 1728.72,-183.55"/>
</g>
<!-- [root] var.key_name -->
<g id="node26" class="node">
<title>[root] var.key_name</title>
<polygon fill="none" stroke="black" points="1196,-180 1089,-180 1089,-144 1202,-144 1202,-174 1196,-180"/>
<polyline fill="none" stroke="black" points="1196,-180 1196,-174 "/>
<polyline fill="none" stroke="black" points="1202,-174 1196,-174 "/>
<text text-anchor="middle" x="1145.5" y="-158.3" font-family="Times,serif" font-size="14.00">var.key_name</text>
</g>
<!-- [root] aws_emr_cluster.cluster (expand)&#45;&gt;[root] var.key_name -->
<g id="edge7" class="edge">
<title>[root] aws_emr_cluster.cluster (expand)&#45;&gt;[root] var.key_name</title>
<path fill="none" stroke="black" d="M1111.62,-215.7C1116.86,-207.56 1123.2,-197.69 1128.98,-188.7"/>
<polygon fill="black" stroke="black" points="1132.04,-190.41 1134.5,-180.1 1126.15,-186.62 1132.04,-190.41"/>
</g>
<!-- [root] var.s3_bucket_name -->
<g id="node30" class="node">
<title>[root] var.s3_bucket_name</title>
<polygon fill="none" stroke="black" points="222.5,-180 68.5,-180 68.5,-144 228.5,-144 228.5,-174 222.5,-180"/>
<polyline fill="none" stroke="black" points="222.5,-180 222.5,-174 "/>
<polyline fill="none" stroke="black" points="228.5,-174 222.5,-174 "/>
<text text-anchor="middle" x="148.5" y="-158.3" font-family="Times,serif" font-size="14.00">var.s3_bucket_name</text>
</g>
<!-- [root] aws_emr_cluster.cluster (expand)&#45;&gt;[root] var.s3_bucket_name -->
<g id="edge8" class="edge">
<title>[root] aws_emr_cluster.cluster (expand)&#45;&gt;[root] var.s3_bucket_name</title>
<path fill="none" stroke="black" d="M1006.27,-231.14C849.09,-227.17 523.39,-215.24 239.05,-180.1"/>
<polygon fill="black" stroke="black" points="239.31,-176.61 228.96,-178.84 238.45,-183.56 239.31,-176.61"/>
</g>
<!-- [root] aws_iam_role.role (expand) -->
<g id="node5" class="node">
<title>[root] aws_iam_role.role (expand)</title>
<polygon fill="none" stroke="black" points="1060.5,-108 916.5,-108 916.5,-72 1060.5,-72 1060.5,-108"/>
<text text-anchor="middle" x="988.5" y="-86.3" font-family="Times,serif" font-size="14.00">aws_iam_role.role</text>
</g>
<!-- [root] aws_iam_instance_profile.emr_profile (expand)&#45;&gt;[root] aws_iam_role.role (expand) -->
<g id="edge9" class="edge">
<title>[root] aws_iam_instance_profile.emr_profile (expand)&#45;&gt;[root] aws_iam_role.role (expand)</title>
<path fill="none" stroke="black" d="M944.08,-143.7C951.16,-135.3 959.78,-125.07 967.55,-115.86"/>
<polygon fill="black" stroke="black" points="970.31,-118.01 974.08,-108.1 964.96,-113.49 970.31,-118.01"/>
</g>
<!-- [root] data.aws_iam_policy_document.emr_autoscaling_role_policy (expand) -->
<g id="node17" class="node">
<title>[root] data.aws_iam_policy_document.emr_autoscaling_role_policy (expand)</title>
<polygon fill="none" stroke="black" points="512.5,-108 68.5,-108 68.5,-72 512.5,-72 512.5,-108"/>
<text text-anchor="middle" x="290.5" y="-86.3" font-family="Times,serif" font-size="14.00">data.aws_iam_policy_document.emr_autoscaling_role_policy</text>
</g>
<!-- [root] aws_iam_role.emr_autoscaling_role (expand)&#45;&gt;[root] data.aws_iam_policy_document.emr_autoscaling_role_policy (expand) -->
<g id="edge10" class="edge">
<title>[root] aws_iam_role.emr_autoscaling_role (expand)&#45;&gt;[root] data.aws_iam_policy_document.emr_autoscaling_role_policy (expand)</title>
<path fill="none" stroke="black" d="M358.25,-143.7C346.92,-134.88 332.97,-124.03 320.68,-114.47"/>
<polygon fill="black" stroke="black" points="322.53,-111.48 312.49,-108.1 318.24,-117.01 322.53,-111.48"/>
</g>
<!-- [root] data.aws_iam_policy_document.emr_assume_role (expand) -->
<g id="node16" class="node">
<title>[root] data.aws_iam_policy_document.emr_assume_role (expand)</title>
<polygon fill="none" stroke="black" points="898.5,-108 530.5,-108 530.5,-72 898.5,-72 898.5,-108"/>
<text text-anchor="middle" x="714.5" y="-86.3" font-family="Times,serif" font-size="14.00">data.aws_iam_policy_document.emr_assume_role</text>
</g>
<!-- [root] aws_iam_role.emr_service_role (expand)&#45;&gt;[root] data.aws_iam_policy_document.emr_assume_role (expand) -->
<g id="edge11" class="edge">
<title>[root] aws_iam_role.emr_service_role (expand)&#45;&gt;[root] data.aws_iam_policy_document.emr_assume_role (expand)</title>
<path fill="none" stroke="black" d="M667.07,-143.7C674.7,-135.22 684.02,-124.86 692.38,-115.58"/>
<polygon fill="black" stroke="black" points="695.02,-117.88 699.11,-108.1 689.81,-113.2 695.02,-117.88"/>
</g>
<!-- [root] provider[&quot;registry.terraform.io/hashicorp/aws&quot;] -->
<g id="node23" class="node">
<title>[root] provider[&quot;registry.terraform.io/hashicorp/aws&quot;]</title>
<polygon fill="none" stroke="black" points="714.5,-36 389.24,-18 714.5,0 1039.76,-18 714.5,-36"/>
<text text-anchor="middle" x="714.5" y="-14.3" font-family="Times,serif" font-size="14.00">provider[&quot;registry.terraform.io/hashicorp/aws&quot;]</text>
</g>
<!-- [root] aws_iam_role.role (expand)&#45;&gt;[root] provider[&quot;registry.terraform.io/hashicorp/aws&quot;] -->
<g id="edge12" class="edge">
<title>[root] aws_iam_role.role (expand)&#45;&gt;[root] provider[&quot;registry.terraform.io/hashicorp/aws&quot;]</title>
<path fill="none" stroke="black" d="M921.82,-71.97C878.47,-60.89 822.23,-46.52 779.26,-35.54"/>
<polygon fill="black" stroke="black" points="780.03,-32.13 769.47,-33.04 778.3,-38.91 780.03,-32.13"/>
</g>
<!-- [root] aws_iam_role_policy_attachment.emr_autoscaling_role (expand) -->
<g id="node6" class="node">
<title>[root] aws_iam_role_policy_attachment.emr_autoscaling_role (expand)</title>
<polygon fill="none" stroke="black" points="586,-324 181,-324 181,-288 586,-288 586,-324"/>
<text text-anchor="middle" x="383.5" y="-302.3" font-family="Times,serif" font-size="14.00">aws_iam_role_policy_attachment.emr_autoscaling_role</text>
</g>
<!-- [root] aws_iam_role_policy_attachment.emr_autoscaling_role (expand)&#45;&gt;[root] aws_iam_role.emr_autoscaling_role (expand) -->
<g id="edge13" class="edge">
<title>[root] aws_iam_role_policy_attachment.emr_autoscaling_role (expand)&#45;&gt;[root] aws_iam_role.emr_autoscaling_role (expand)</title>
<path fill="none" stroke="black" d="M383.14,-287.87C382.63,-263.67 381.69,-219.21 381.08,-190.39"/>
<polygon fill="black" stroke="black" points="384.57,-190.11 380.86,-180.19 377.58,-190.26 384.57,-190.11"/>
</g>
<!-- [root] aws_iam_role_policy_attachment.emr_service_role (expand) -->
<g id="node7" class="node">
<title>[root] aws_iam_role_policy_attachment.emr_service_role (expand)</title>
<polygon fill="none" stroke="black" points="978.5,-324 604.5,-324 604.5,-288 978.5,-288 978.5,-324"/>
<text text-anchor="middle" x="791.5" y="-302.3" font-family="Times,serif" font-size="14.00">aws_iam_role_policy_attachment.emr_service_role</text>
</g>
<!-- [root] aws_iam_role_policy_attachment.emr_service_role (expand)&#45;&gt;[root] aws_iam_role.emr_service_role (expand) -->
<g id="edge14" class="edge">
<title>[root] aws_iam_role_policy_attachment.emr_service_role (expand)&#45;&gt;[root] aws_iam_role.emr_service_role (expand)</title>
<path fill="none" stroke="black" d="M774.61,-287.87C749.91,-262.82 703.8,-216.05 675.56,-187.41"/>
<polygon fill="black" stroke="black" points="677.96,-184.85 668.45,-180.19 672.98,-189.77 677.96,-184.85"/>
</g>
<!-- [root] aws_internet_gateway.gw (expand) -->
<g id="node8" class="node">
<title>[root] aws_internet_gateway.gw (expand)</title>
<polygon fill="none" stroke="black" points="2144,-180 1945,-180 1945,-144 2144,-144 2144,-180"/>
<text text-anchor="middle" x="2044.5" y="-158.3" font-family="Times,serif" font-size="14.00">aws_internet_gateway.gw</text>
</g>
<!-- [root] aws_vpc.emr_vpc (expand) -->
<g id="node15" class="node">
<title>[root] aws_vpc.emr_vpc (expand)</title>
<polygon fill="none" stroke="black" points="1673.5,-108 1533.5,-108 1533.5,-72 1673.5,-72 1673.5,-108"/>
<text text-anchor="middle" x="1603.5" y="-86.3" font-family="Times,serif" font-size="14.00">aws_vpc.emr_vpc</text>
</g>
<!-- [root] aws_internet_gateway.gw (expand)&#45;&gt;[root] aws_vpc.emr_vpc (expand) -->
<g id="edge15" class="edge">
<title>[root] aws_internet_gateway.gw (expand)&#45;&gt;[root] aws_vpc.emr_vpc (expand)</title>
<path fill="none" stroke="black" d="M1944.98,-145.2C1866.01,-132.67 1757.04,-115.37 1683.62,-103.72"/>
<polygon fill="black" stroke="black" points="1683.93,-100.22 1673.5,-102.11 1682.83,-107.14 1683.93,-100.22"/>
</g>
<!-- [root] aws_route_table.emr_route (expand) -->
<g id="node9" class="node">
<title>[root] aws_route_table.emr_route (expand)</title>
<polygon fill="none" stroke="black" points="2121.5,-252 1911.5,-252 1911.5,-216 2121.5,-216 2121.5,-252"/>
<text text-anchor="middle" x="2016.5" y="-230.3" font-family="Times,serif" font-size="14.00">aws_route_table.emr_route</text>
</g>
<!-- [root] aws_route_table.emr_route (expand)&#45;&gt;[root] aws_internet_gateway.gw (expand) -->
<g id="edge16" class="edge">
<title>[root] aws_route_table.emr_route (expand)&#45;&gt;[root] aws_internet_gateway.gw (expand)</title>
<path fill="none" stroke="black" d="M2023.42,-215.7C2026.57,-207.81 2030.38,-198.3 2033.88,-189.55"/>
<polygon fill="black" stroke="black" points="2037.19,-190.69 2037.66,-180.1 2030.69,-188.09 2037.19,-190.69"/>
</g>
<!-- [root] aws_route_table_association.emr_route_assoc (expand) -->
<g id="node10" class="node">
<title>[root] aws_route_table_association.emr_route_assoc (expand)</title>
<polygon fill="none" stroke="black" points="1988.5,-324 1646.5,-324 1646.5,-288 1988.5,-288 1988.5,-324"/>
<text text-anchor="middle" x="1817.5" y="-302.3" font-family="Times,serif" font-size="14.00">aws_route_table_association.emr_route_assoc</text>
</g>
<!-- [root] aws_route_table_association.emr_route_assoc (expand)&#45;&gt;[root] aws_route_table.emr_route (expand) -->
<g id="edge17" class="edge">
<title>[root] aws_route_table_association.emr_route_assoc (expand)&#45;&gt;[root] aws_route_table.emr_route (expand)</title>
<path fill="none" stroke="black" d="M1865.93,-287.97C1893.73,-278.19 1928.84,-265.84 1958.15,-255.52"/>
<polygon fill="black" stroke="black" points="1959.58,-258.73 1967.86,-252.11 1957.26,-252.13 1959.58,-258.73"/>
</g>
<!-- [root] aws_route_table_association.emr_route_assoc (expand)&#45;&gt;[root] aws_subnet.emr_subnet (expand) -->
<g id="edge18" class="edge">
<title>[root] aws_route_table_association.emr_route_assoc (expand)&#45;&gt;[root] aws_subnet.emr_subnet (expand)</title>
<path fill="none" stroke="black" d="M1819.31,-287.87C1821.87,-263.67 1826.56,-219.21 1829.61,-190.39"/>
<polygon fill="black" stroke="black" points="1833.11,-190.5 1830.68,-180.19 1826.15,-189.77 1833.11,-190.5"/>
</g>
<!-- [root] aws_s3_bucket.create_bucket (expand) -->
<g id="node11" class="node">
<title>[root] aws_s3_bucket.create_bucket (expand)</title>
<polygon fill="none" stroke="black" points="227,-252 0,-252 0,-216 227,-216 227,-252"/>
<text text-anchor="middle" x="113.5" y="-230.3" font-family="Times,serif" font-size="14.00">aws_s3_bucket.create_bucket</text>
</g>
<!-- [root] aws_s3_bucket.create_bucket (expand)&#45;&gt;[root] provider[&quot;registry.terraform.io/hashicorp/aws&quot;] -->
<g id="edge19" class="edge">
<title>[root] aws_s3_bucket.create_bucket (expand)&#45;&gt;[root] provider[&quot;registry.terraform.io/hashicorp/aws&quot;]</title>
<path fill="none" stroke="black" d="M88.57,-215.86C77.44,-206.67 65.5,-194.29 59.5,-180 40.92,-135.74 26.96,-107.28 59.5,-72 87.46,-41.69 292.72,-28.71 466.12,-23.16"/>
<polygon fill="black" stroke="black" points="466.3,-26.65 476.18,-22.84 466.08,-19.66 466.3,-26.65"/>
</g>
<!-- [root] aws_s3_bucket.create_bucket (expand)&#45;&gt;[root] var.s3_bucket_name -->
<g id="edge20" class="edge">
<title>[root] aws_s3_bucket.create_bucket (expand)&#45;&gt;[root] var.s3_bucket_name</title>
<path fill="none" stroke="black" d="M122.15,-215.7C126.14,-207.73 130.95,-198.1 135.37,-189.26"/>
<polygon fill="black" stroke="black" points="138.61,-190.61 139.95,-180.1 132.35,-187.48 138.61,-190.61"/>
</g>
<!-- [root] aws_security_group.emr_master (expand)&#45;&gt;[root] aws_vpc.emr_vpc (expand) -->
<g id="edge21" class="edge">
<title>[root] aws_security_group.emr_master (expand)&#45;&gt;[root] aws_vpc.emr_vpc (expand)</title>
<path fill="none" stroke="black" d="M1407.53,-143.97C1444.66,-133.93 1491.8,-121.19 1530.53,-110.72"/>
<polygon fill="black" stroke="black" points="1531.45,-114.1 1540.19,-108.11 1529.62,-107.34 1531.45,-114.1"/>
</g>
<!-- [root] var.ingress_cidr_blocks -->
<g id="node25" class="node">
<title>[root] var.ingress_cidr_blocks</title>
<polygon fill="none" stroke="black" points="1469.5,-108 1293.5,-108 1293.5,-72 1475.5,-72 1475.5,-102 1469.5,-108"/>
<polyline fill="none" stroke="black" points="1469.5,-108 1469.5,-102 "/>
<polyline fill="none" stroke="black" points="1475.5,-102 1469.5,-102 "/>
<text text-anchor="middle" x="1384.5" y="-86.3" font-family="Times,serif" font-size="14.00">var.ingress_cidr_blocks</text>
</g>
<!-- [root] aws_security_group.emr_master (expand)&#45;&gt;[root] var.ingress_cidr_blocks -->
<g id="edge22" class="edge">
<title>[root] aws_security_group.emr_master (expand)&#45;&gt;[root] var.ingress_cidr_blocks</title>
<path fill="none" stroke="black" d="M1354.39,-143.7C1358.99,-135.64 1364.56,-125.89 1369.65,-116.98"/>
<polygon fill="black" stroke="black" points="1372.8,-118.52 1374.73,-108.1 1366.73,-115.05 1372.8,-118.52"/>
</g>
<!-- [root] aws_security_group.emr_slave (expand)&#45;&gt;[root] aws_vpc.emr_vpc (expand) -->
<g id="edge23" class="edge">
<title>[root] aws_security_group.emr_slave (expand)&#45;&gt;[root] aws_vpc.emr_vpc (expand)</title>
<path fill="none" stroke="black" d="M1603.5,-143.7C1603.5,-135.98 1603.5,-126.71 1603.5,-118.11"/>
<polygon fill="black" stroke="black" points="1607,-118.1 1603.5,-108.1 1600,-118.1 1607,-118.1"/>
</g>
<!-- [root] aws_security_group.emr_slave (expand)&#45;&gt;[root] var.ingress_cidr_blocks -->
<g id="edge24" class="edge">
<title>[root] aws_security_group.emr_slave (expand)&#45;&gt;[root] var.ingress_cidr_blocks</title>
<path fill="none" stroke="black" d="M1550.21,-143.97C1519.34,-134.1 1480.3,-121.62 1447.87,-111.25"/>
<polygon fill="black" stroke="black" points="1448.62,-107.82 1438.03,-108.11 1446.49,-114.49 1448.62,-107.82"/>
</g>
<!-- [root] aws_subnet.emr_subnet (expand)&#45;&gt;[root] aws_vpc.emr_vpc (expand) -->
<g id="edge25" class="edge">
<title>[root] aws_subnet.emr_subnet (expand)&#45;&gt;[root] aws_vpc.emr_vpc (expand)</title>
<path fill="none" stroke="black" d="M1776.77,-143.97C1744.36,-134.06 1703.32,-121.51 1669.32,-111.12"/>
<polygon fill="black" stroke="black" points="1670.06,-107.69 1659.48,-108.11 1668.02,-114.38 1670.06,-107.69"/>
</g>
<!-- [root] aws_vpc.emr_vpc (expand)&#45;&gt;[root] provider[&quot;registry.terraform.io/hashicorp/aws&quot;] -->
<g id="edge26" class="edge">
<title>[root] aws_vpc.emr_vpc (expand)&#45;&gt;[root] provider[&quot;registry.terraform.io/hashicorp/aws&quot;]</title>
<path fill="none" stroke="black" d="M1533.45,-78.12C1517.39,-75.87 1500.38,-73.68 1484.5,-72 1280.93,-50.48 1046.11,-35.77 889.83,-27.41"/>
<polygon fill="black" stroke="black" points="889.83,-23.9 879.65,-26.87 889.45,-30.89 889.83,-23.9"/>
</g>
<!-- [root] var.environment -->
<g id="node24" class="node">
<title>[root] var.environment</title>
<polygon fill="none" stroke="black" points="1538.5,-36 1410.5,-36 1410.5,0 1544.5,0 1544.5,-30 1538.5,-36"/>
<polyline fill="none" stroke="black" points="1538.5,-36 1538.5,-30 "/>
<polyline fill="none" stroke="black" points="1544.5,-30 1538.5,-30 "/>
<text text-anchor="middle" x="1477.5" y="-14.3" font-family="Times,serif" font-size="14.00">var.environment</text>
</g>
<!-- [root] aws_vpc.emr_vpc (expand)&#45;&gt;[root] var.environment -->
<g id="edge27" class="edge">
<title>[root] aws_vpc.emr_vpc (expand)&#45;&gt;[root] var.environment</title>
<path fill="none" stroke="black" d="M1572.68,-71.88C1556.05,-62.64 1535.34,-51.13 1517.48,-41.21"/>
<polygon fill="black" stroke="black" points="1518.88,-37.99 1508.44,-36.19 1515.48,-44.11 1518.88,-37.99"/>
</g>
<!-- [root] var.name -->
<g id="node27" class="node">
<title>[root] var.name</title>
<polygon fill="none" stroke="black" points="1638.5,-36 1562.5,-36 1562.5,0 1644.5,0 1644.5,-30 1638.5,-36"/>
<polyline fill="none" stroke="black" points="1638.5,-36 1638.5,-30 "/>
<polyline fill="none" stroke="black" points="1644.5,-30 1638.5,-30 "/>
<text text-anchor="middle" x="1603.5" y="-14.3" font-family="Times,serif" font-size="14.00">var.name</text>
</g>
<!-- [root] aws_vpc.emr_vpc (expand)&#45;&gt;[root] var.name -->
<g id="edge28" class="edge">
<title>[root] aws_vpc.emr_vpc (expand)&#45;&gt;[root] var.name</title>
<path fill="none" stroke="black" d="M1603.5,-71.7C1603.5,-63.98 1603.5,-54.71 1603.5,-46.11"/>
<polygon fill="black" stroke="black" points="1607,-46.1 1603.5,-36.1 1600,-46.1 1607,-46.1"/>
</g>
<!-- [root] var.project -->
<g id="node28" class="node">
<title>[root] var.project</title>
<polygon fill="none" stroke="black" points="1750,-36 1663,-36 1663,0 1756,0 1756,-30 1750,-36"/>
<polyline fill="none" stroke="black" points="1750,-36 1750,-30 "/>
<polyline fill="none" stroke="black" points="1756,-30 1750,-30 "/>
<text text-anchor="middle" x="1709.5" y="-14.3" font-family="Times,serif" font-size="14.00">var.project</text>
</g>
<!-- [root] aws_vpc.emr_vpc (expand)&#45;&gt;[root] var.project -->
<g id="edge29" class="edge">
<title>[root] aws_vpc.emr_vpc (expand)&#45;&gt;[root] var.project</title>
<path fill="none" stroke="black" d="M1629.43,-71.88C1643.16,-62.81 1660.21,-51.55 1675.04,-41.76"/>
<polygon fill="black" stroke="black" points="1677.05,-44.62 1683.47,-36.19 1673.2,-38.78 1677.05,-44.62"/>
</g>
<!-- [root] data.aws_iam_policy_document.emr_assume_role (expand)&#45;&gt;[root] provider[&quot;registry.terraform.io/hashicorp/aws&quot;] -->
<g id="edge30" class="edge">
<title>[root] data.aws_iam_policy_document.emr_assume_role (expand)&#45;&gt;[root] provider[&quot;registry.terraform.io/hashicorp/aws&quot;]</title>
<path fill="none" stroke="black" d="M714.5,-71.7C714.5,-63.98 714.5,-54.71 714.5,-46.11"/>
<polygon fill="black" stroke="black" points="718,-46.1 714.5,-36.1 711,-46.1 718,-46.1"/>
</g>
<!-- [root] data.aws_iam_policy_document.emr_autoscaling_role_policy (expand)&#45;&gt;[root] provider[&quot;registry.terraform.io/hashicorp/aws&quot;] -->
<g id="edge31" class="edge">
<title>[root] data.aws_iam_policy_document.emr_autoscaling_role_policy (expand)&#45;&gt;[root] provider[&quot;registry.terraform.io/hashicorp/aws&quot;]</title>
<path fill="none" stroke="black" d="M393.68,-71.97C465.14,-60.17 559.24,-44.63 627.02,-33.44"/>
<polygon fill="black" stroke="black" points="627.95,-36.84 637.25,-31.75 626.81,-29.93 627.95,-36.84"/>
</g>
<!-- [root] output.id -->
<g id="node18" class="node">
<title>[root] output.id</title>
<polygon fill="none" stroke="black" points="1524.5,-324 1448.5,-324 1448.5,-288 1530.5,-288 1530.5,-318 1524.5,-324"/>
<polyline fill="none" stroke="black" points="1524.5,-324 1524.5,-318 "/>
<polyline fill="none" stroke="black" points="1530.5,-318 1524.5,-318 "/>
<text text-anchor="middle" x="1489.5" y="-302.3" font-family="Times,serif" font-size="14.00">output.id</text>
</g>
<!-- [root] output.id&#45;&gt;[root] aws_emr_cluster.cluster (expand) -->
<g id="edge42" class="edge">
<title>[root] output.id&#45;&gt;[root] aws_emr_cluster.cluster (expand)</title>
<path fill="none" stroke="black" d="M1448.47,-290.42C1445.45,-289.54 1442.44,-288.72 1439.5,-288 1337.73,-263.04 1310.01,-268.3 1206.5,-252 1205.9,-251.9 1205.29,-251.81 1204.68,-251.71"/>
<polygon fill="black" stroke="black" points="1205.13,-248.24 1194.7,-250.14 1204.03,-255.15 1205.13,-248.24"/>
</g>
<!-- [root] output.master_public_dns -->
<g id="node19" class="node">
<title>[root] output.master_public_dns</title>
<polygon fill="none" stroke="black" points="1192,-324 997,-324 997,-288 1198,-288 1198,-318 1192,-324"/>
<polyline fill="none" stroke="black" points="1192,-324 1192,-318 "/>
<polyline fill="none" stroke="black" points="1198,-318 1192,-318 "/>
<text text-anchor="middle" x="1097.5" y="-302.3" font-family="Times,serif" font-size="14.00">output.master_public_dns</text>
</g>
<!-- [root] output.master_public_dns&#45;&gt;[root] aws_emr_cluster.cluster (expand) -->
<g id="edge43" class="edge">
<title>[root] output.master_public_dns&#45;&gt;[root] aws_emr_cluster.cluster (expand)</title>
<path fill="none" stroke="black" d="M1098.24,-287.7C1098.57,-279.98 1098.97,-270.71 1099.34,-262.11"/>
<polygon fill="black" stroke="black" points="1102.84,-262.25 1099.77,-252.1 1095.84,-261.95 1102.84,-262.25"/>
</g>
<!-- [root] output.master_security_group_id -->
<g id="node20" class="node">
<title>[root] output.master_security_group_id</title>
<polygon fill="none" stroke="black" points="1461.5,-252 1215.5,-252 1215.5,-216 1467.5,-216 1467.5,-246 1461.5,-252"/>
<polyline fill="none" stroke="black" points="1461.5,-252 1461.5,-246 "/>
<polyline fill="none" stroke="black" points="1467.5,-246 1461.5,-246 "/>
<text text-anchor="middle" x="1341.5" y="-230.3" font-family="Times,serif" font-size="14.00">output.master_security_group_id</text>
</g>
<!-- [root] output.master_security_group_id&#45;&gt;[root] aws_security_group.emr_master (expand) -->
<g id="edge44" class="edge">
<title>[root] output.master_security_group_id&#45;&gt;[root] aws_security_group.emr_master (expand)</title>
<path fill="none" stroke="black" d="M1342.24,-215.7C1342.57,-207.98 1342.97,-198.71 1343.34,-190.11"/>
<polygon fill="black" stroke="black" points="1346.84,-190.25 1343.77,-180.1 1339.84,-189.95 1346.84,-190.25"/>
</g>
<!-- [root] output.name -->
<g id="node21" class="node">
<title>[root] output.name</title>
<polygon fill="none" stroke="black" points="1424,-324 1323,-324 1323,-288 1430,-288 1430,-318 1424,-324"/>
<polyline fill="none" stroke="black" points="1424,-324 1424,-318 "/>
<polyline fill="none" stroke="black" points="1430,-318 1424,-318 "/>
<text text-anchor="middle" x="1376.5" y="-302.3" font-family="Times,serif" font-size="14.00">output.name</text>
</g>
<!-- [root] output.name&#45;&gt;[root] aws_emr_cluster.cluster (expand) -->
<g id="edge45" class="edge">
<title>[root] output.name&#45;&gt;[root] aws_emr_cluster.cluster (expand)</title>
<path fill="none" stroke="black" d="M1322.75,-290.18C1319.96,-289.43 1317.2,-288.7 1314.5,-288 1270.53,-276.53 1221.33,-264.3 1181.19,-254.48"/>
<polygon fill="black" stroke="black" points="1182,-251.08 1171.46,-252.11 1180.34,-257.88 1182,-251.08"/>
</g>
<!-- [root] output.slave_security_group_id -->
<g id="node22" class="node">
<title>[root] output.slave_security_group_id</title>
<polygon fill="none" stroke="black" points="1719,-252 1486,-252 1486,-216 1725,-216 1725,-246 1719,-252"/>
<polyline fill="none" stroke="black" points="1719,-252 1719,-246 "/>
<polyline fill="none" stroke="black" points="1725,-246 1719,-246 "/>
<text text-anchor="middle" x="1605.5" y="-230.3" font-family="Times,serif" font-size="14.00">output.slave_security_group_id</text>
</g>
<!-- [root] output.slave_security_group_id&#45;&gt;[root] aws_security_group.emr_slave (expand) -->
<g id="edge46" class="edge">
<title>[root] output.slave_security_group_id&#45;&gt;[root] aws_security_group.emr_slave (expand)</title>
<path fill="none" stroke="black" d="M1605.01,-215.7C1604.79,-207.98 1604.52,-198.71 1604.27,-190.11"/>
<polygon fill="black" stroke="black" points="1607.77,-190 1603.99,-180.1 1600.78,-190.2 1607.77,-190"/>
</g>
<!-- [root] var.region -->
<g id="node29" class="node">
<title>[root] var.region</title>
<polygon fill="none" stroke="black" points="1299,-324 1216,-324 1216,-288 1305,-288 1305,-318 1299,-324"/>
<polyline fill="none" stroke="black" points="1299,-324 1299,-318 "/>
<polyline fill="none" stroke="black" points="1305,-318 1299,-318 "/>
<text text-anchor="middle" x="1260.5" y="-302.3" font-family="Times,serif" font-size="14.00">var.region</text>
</g>
<!-- [root] meta.count&#45;boundary (EachMode fixup) -->
<g id="node31" class="node">
<title>[root] meta.count&#45;boundary (EachMode fixup)</title>
<ellipse fill="none" stroke="black" cx="1260.5" cy="-378" rx="222.86" ry="18"/>
<text text-anchor="middle" x="1260.5" y="-374.3" font-family="Times,serif" font-size="14.00">[root] meta.count&#45;boundary (EachMode fixup)</text>
</g>
<!-- [root] meta.count&#45;boundary (EachMode fixup)&#45;&gt;[root] aws_iam_role_policy_attachment.emr_autoscaling_role (expand) -->
<g id="edge32" class="edge">
<title>[root] meta.count&#45;boundary (EachMode fixup)&#45;&gt;[root] aws_iam_role_policy_attachment.emr_autoscaling_role (expand)</title>
<path fill="none" stroke="black" d="M1107.97,-364.86C975.62,-354.33 778.54,-338.63 596.1,-324.05"/>
<polygon fill="black" stroke="black" points="596.29,-320.55 586.04,-323.24 595.73,-327.53 596.29,-320.55"/>
</g>
<!-- [root] meta.count&#45;boundary (EachMode fixup)&#45;&gt;[root] aws_iam_role_policy_attachment.emr_service_role (expand) -->
<g id="edge33" class="edge">
<title>[root] meta.count&#45;boundary (EachMode fixup)&#45;&gt;[root] aws_iam_role_policy_attachment.emr_service_role (expand)</title>
<path fill="none" stroke="black" d="M1159.6,-361.94C1088.1,-351.27 991.74,-336.89 915.54,-325.51"/>
<polygon fill="black" stroke="black" points="915.81,-322.02 905.4,-324 914.78,-328.94 915.81,-322.02"/>
</g>
<!-- [root] meta.count&#45;boundary (EachMode fixup)&#45;&gt;[root] aws_route_table_association.emr_route_assoc (expand) -->
<g id="edge34" class="edge">
<title>[root] meta.count&#45;boundary (EachMode fixup)&#45;&gt;[root] aws_route_table_association.emr_route_assoc (expand)</title>
<path fill="none" stroke="black" d="M1375.57,-362.54C1461.56,-351.73 1579.7,-336.88 1672.2,-325.26"/>
<polygon fill="black" stroke="black" points="1672.72,-328.72 1682.21,-324 1671.85,-321.78 1672.72,-328.72"/>
</g>
<!-- [root] meta.count&#45;boundary (EachMode fixup)&#45;&gt;[root] aws_s3_bucket.create_bucket (expand) -->
<g id="edge35" class="edge">
<title>[root] meta.count&#45;boundary (EachMode fixup)&#45;&gt;[root] aws_s3_bucket.create_bucket (expand)</title>
<path fill="none" stroke="black" d="M1068.83,-368.76C758.9,-355.3 181.1,-329.51 171.5,-324 147.75,-310.37 132.04,-282.61 123.03,-261.7"/>
<polygon fill="black" stroke="black" points="126.25,-260.31 119.25,-252.36 119.76,-262.94 126.25,-260.31"/>
</g>
<!-- [root] meta.count&#45;boundary (EachMode fixup)&#45;&gt;[root] output.id -->
<g id="edge36" class="edge">
<title>[root] meta.count&#45;boundary (EachMode fixup)&#45;&gt;[root] output.id</title>
<path fill="none" stroke="black" d="M1318.32,-360.51C1351.13,-351.01 1393.17,-338.6 1438.6,-324.23"/>
<polygon fill="black" stroke="black" points="1439.87,-327.5 1448.34,-321.14 1437.75,-320.83 1439.87,-327.5"/>
</g>
<!-- [root] meta.count&#45;boundary (EachMode fixup)&#45;&gt;[root] output.master_public_dns -->
<g id="edge37" class="edge">
<title>[root] meta.count&#45;boundary (EachMode fixup)&#45;&gt;[root] output.master_public_dns</title>
<path fill="none" stroke="black" d="M1221.46,-360.23C1199.01,-350.59 1170.6,-338.39 1146.64,-328.1"/>
<polygon fill="black" stroke="black" points="1147.93,-324.85 1137.36,-324.12 1145.16,-331.28 1147.93,-324.85"/>
</g>
<!-- [root] meta.count&#45;boundary (EachMode fixup)&#45;&gt;[root] output.master_security_group_id -->
<g id="edge38" class="edge">
<title>[root] meta.count&#45;boundary (EachMode fixup)&#45;&gt;[root] output.master_security_group_id</title>
<path fill="none" stroke="black" d="M1415.02,-364.96C1469.97,-357.2 1522.48,-344.56 1539.5,-324 1568.18,-289.36 1527.11,-267.68 1475.07,-254.4"/>
<polygon fill="black" stroke="black" points="1475.79,-250.97 1465.25,-252.01 1474.14,-257.77 1475.79,-250.97"/>
</g>
<!-- [root] meta.count&#45;boundary (EachMode fixup)&#45;&gt;[root] output.name -->
<g id="edge39" class="edge">
<title>[root] meta.count&#45;boundary (EachMode fixup)&#45;&gt;[root] output.name</title>
<path fill="none" stroke="black" d="M1288.58,-360.05C1303.86,-350.84 1322.94,-339.32 1339.43,-329.37"/>
<polygon fill="black" stroke="black" points="1341.52,-332.19 1348.28,-324.03 1337.91,-326.2 1341.52,-332.19"/>
</g>
<!-- [root] meta.count&#45;boundary (EachMode fixup)&#45;&gt;[root] output.slave_security_group_id -->
<g id="edge40" class="edge">
<title>[root] meta.count&#45;boundary (EachMode fixup)&#45;&gt;[root] output.slave_security_group_id</title>
<path fill="none" stroke="black" d="M1399.35,-363.88C1463.79,-355.49 1531.77,-342.61 1557.5,-324 1578.31,-308.95 1591.01,-282.03 1598.07,-261.73"/>
<polygon fill="black" stroke="black" points="1601.44,-262.69 1601.18,-252.1 1594.78,-260.54 1601.44,-262.69"/>
</g>
<!-- [root] meta.count&#45;boundary (EachMode fixup)&#45;&gt;[root] var.region -->
<g id="edge41" class="edge">
<title>[root] meta.count&#45;boundary (EachMode fixup)&#45;&gt;[root] var.region</title>
<path fill="none" stroke="black" d="M1260.5,-359.7C1260.5,-351.98 1260.5,-342.71 1260.5,-334.11"/>
<polygon fill="black" stroke="black" points="1264,-334.1 1260.5,-324.1 1257,-334.1 1264,-334.1"/>
</g>
<!-- [root] provider[&quot;registry.terraform.io/hashicorp/aws&quot;] (close) -->
<g id="node32" class="node">
<title>[root] provider[&quot;registry.terraform.io/hashicorp/aws&quot;] (close)</title>
<ellipse fill="none" stroke="black" cx="555.5" cy="-378" rx="291.65" ry="18"/>
<text text-anchor="middle" x="555.5" y="-374.3" font-family="Times,serif" font-size="14.00">[root] provider[&quot;registry.terraform.io/hashicorp/aws&quot;] (close)</text>
</g>
<!-- [root] provider[&quot;registry.terraform.io/hashicorp/aws&quot;] (close)&#45;&gt;[root] aws_emr_cluster.cluster (expand) -->
<g id="edge47" class="edge">
<title>[root] provider[&quot;registry.terraform.io/hashicorp/aws&quot;] (close)&#45;&gt;[root] aws_emr_cluster.cluster (expand)</title>
<path fill="none" stroke="black" d="M309.42,-368.32C247,-360.71 191.81,-347.31 171.5,-324 160.99,-311.94 160.51,-299.63 171.5,-288 199.45,-258.4 759.53,-242.55 996.28,-237.15"/>
<polygon fill="black" stroke="black" points="996.36,-240.65 1006.28,-236.93 996.2,-233.65 996.36,-240.65"/>
</g>
<!-- [root] provider[&quot;registry.terraform.io/hashicorp/aws&quot;] (close)&#45;&gt;[root] aws_iam_role_policy_attachment.emr_autoscaling_role (expand) -->
<g id="edge48" class="edge">
<title>[root] provider[&quot;registry.terraform.io/hashicorp/aws&quot;] (close)&#45;&gt;[root] aws_iam_role_policy_attachment.emr_autoscaling_role (expand)</title>
<path fill="none" stroke="black" d="M513.86,-360.05C490.06,-350.37 460.01,-338.14 434.77,-327.86"/>
<polygon fill="black" stroke="black" points="435.93,-324.56 425.35,-324.03 433.29,-331.04 435.93,-324.56"/>
</g>
<!-- [root] provider[&quot;registry.terraform.io/hashicorp/aws&quot;] (close)&#45;&gt;[root] aws_iam_role_policy_attachment.emr_service_role (expand) -->
<g id="edge49" class="edge">
<title>[root] provider[&quot;registry.terraform.io/hashicorp/aws&quot;] (close)&#45;&gt;[root] aws_iam_role_policy_attachment.emr_service_role (expand)</title>
<path fill="none" stroke="black" d="M611.73,-360.32C645.5,-350.31 688.67,-337.5 724.25,-326.95"/>
<polygon fill="black" stroke="black" points="725.47,-330.24 734.06,-324.04 723.48,-323.52 725.47,-330.24"/>
</g>
<!-- [root] provider[&quot;registry.terraform.io/hashicorp/aws&quot;] (close)&#45;&gt;[root] aws_route_table_association.emr_route_assoc (expand) -->
<g id="edge50" class="edge">
<title>[root] provider[&quot;registry.terraform.io/hashicorp/aws&quot;] (close)&#45;&gt;[root] aws_route_table_association.emr_route_assoc (expand)</title>
<path fill="none" stroke="black" d="M771,-365.84C970.37,-355.42 1274.98,-339.21 1539.5,-324 1570.65,-322.21 1603.75,-320.24 1635.85,-318.3"/>
<polygon fill="black" stroke="black" points="1636.46,-321.77 1646.23,-317.67 1636.03,-314.78 1636.46,-321.77"/>
</g>
<!-- [root] provider[&quot;registry.terraform.io/hashicorp/aws&quot;] (close)&#45;&gt;[root] aws_s3_bucket.create_bucket (expand) -->
<g id="edge51" class="edge">
<title>[root] provider[&quot;registry.terraform.io/hashicorp/aws&quot;] (close)&#45;&gt;[root] aws_s3_bucket.create_bucket (expand)</title>
<path fill="none" stroke="black" d="M348.06,-365.32C236.33,-356.85 117.8,-343.43 100.5,-324 85.49,-307.14 91.58,-280.94 99.72,-261.32"/>
<polygon fill="black" stroke="black" points="103,-262.57 103.94,-252.02 96.62,-259.69 103,-262.57"/>
</g>
<!-- [root] root -->
<g id="node33" class="node">
<title>[root] root</title>
<ellipse fill="none" stroke="black" cx="821.5" cy="-450" rx="58.49" ry="18"/>
<text text-anchor="middle" x="821.5" y="-446.3" font-family="Times,serif" font-size="14.00">[root] root</text>
</g>
<!-- [root] root&#45;&gt;[root] meta.count&#45;boundary (EachMode fixup) -->
<g id="edge52" class="edge">
<title>[root] root&#45;&gt;[root] meta.count&#45;boundary (EachMode fixup)</title>
<path fill="none" stroke="black" d="M872.29,-440.9C941.03,-429.94 1065.37,-410.11 1154.83,-395.85"/>
<polygon fill="black" stroke="black" points="1155.42,-399.3 1164.74,-394.27 1154.31,-392.39 1155.42,-399.3"/>
</g>
<!-- [root] root&#45;&gt;[root] provider[&quot;registry.terraform.io/hashicorp/aws&quot;] (close) -->
<g id="edge53" class="edge">
<title>[root] root&#45;&gt;[root] provider[&quot;registry.terraform.io/hashicorp/aws&quot;] (close)</title>
<path fill="none" stroke="black" d="M778.47,-437.68C737.96,-427.01 676.48,-410.84 628.33,-398.17"/>
<polygon fill="black" stroke="black" points="629.14,-394.76 618.58,-395.6 627.36,-401.53 629.14,-394.76"/>
</g>
</g>
</svg>
